<?xml version="1.0" encoding="utf-8"?>
<!-- Generator: Adobe Illustrator 25.4.1, SVG Export Plug-In . SVG Version: 6.00 Build 0)  -->
<svg version="1.1" id="Capa_1" xmlns="http://www.w3.org/2000/svg" xmlns:xlink="http://www.w3.org/1999/xlink" x="0px" y="0px"
	 viewBox="0 0 595.28 841.89" style="enable-background:new 0 0 595.28 841.89;" xml:space="preserve">
<style type="text/css">
	.st0{fill:#9B1917;}
	.st1{fill:#D31B30;}
	.st2{fill:#E30613;}
	.st3{fill:#F6F6F6;}
</style>
<polygon class="st0" points="263.37,289.25 260.35,299.35 210.74,116.89 289.33,92.14 305.03,149.84 265.42,282.4 "/>
<polygon class="st1" points="289.33,92.14 210.74,116.89 175.42,108.33 96.82,89.24 175.42,64.49 "/>
<polygon class="st0" points="501.7,143.7 501.7,475.67 494,478.57 423.1,505.18 423.1,168.46 "/>
<polygon class="st2" points="423.1,168.46 423.1,505.18 333.89,483.55 333.89,335.87 305.03,427.8 303.05,434.11 290.82,473.07 
	227.87,457.8 221.83,435.65 215.07,410.84 184.77,299.65 184.77,447.33 96.82,425.97 96.82,89.24 175.42,108.33 210.74,116.89 
	260.35,299.35 263.37,289.25 265.42,282.4 305.03,149.84 307.83,140.46 374.21,156.57 "/>
<polygon class="st1" points="501.7,143.7 423.1,168.46 374.21,156.57 307.83,140.46 386.42,115.71 "/>
<polygon class="st0" points="305.03,427.8 333.89,335.87 333.89,459.51 290.82,473.07 303.05,434.11 "/>
<polygon class="st0" points="221.83,435.65 184.77,447.33 184.77,299.65 215.07,410.84 "/>
<polygon class="st3" points="459.22,207.75 431.92,216.35 431.92,191.89 459.22,183.29 "/>
<polygon class="st3" points="495.89,196.38 468.59,204.98 468.59,180.52 495.89,171.92 "/>
<polygon class="st3" points="459.22,240.81 431.92,249.42 431.92,224.96 459.22,216.35 "/>
<polygon class="st3" points="495.89,229.44 468.59,238.05 468.59,213.59 495.89,204.98 "/>
<polygon class="st3" points="459.22,273.88 431.92,282.48 431.92,258.02 459.22,249.42 "/>
<polygon class="st3" points="495.89,262.51 468.59,271.11 468.59,246.65 495.89,238.05 "/>
<polygon class="st3" points="459.22,306.94 431.92,315.55 431.92,291.09 459.22,282.48 "/>
<polygon class="st3" points="495.89,295.57 468.59,304.18 468.59,279.72 495.89,271.11 "/>
<polygon class="st3" points="459.22,340.01 431.92,348.61 431.92,324.15 459.22,315.55 "/>
<polygon class="st3" points="495.89,328.64 468.59,337.24 468.59,312.78 495.89,304.18 "/>
<polygon class="st3" points="459.22,373.07 431.92,381.68 431.92,357.22 459.22,348.61 "/>
<polygon class="st3" points="495.89,361.7 468.59,370.31 468.59,345.85 495.89,337.24 "/>
<polygon class="st3" points="459.22,406.14 431.92,414.74 431.92,390.28 459.22,381.68 "/>
<polygon class="st3" points="495.89,394.77 468.59,403.37 468.59,378.91 495.89,370.31 "/>
</svg>
